<svg xmlns="http://www.w3.org/2000/svg" version="1.1" xmlns:xlink="http://www.w3.org/1999/xlink" width="512" height="512" x="0" y="0" viewBox="0 0 128 128" style="enable-background:new 0 0 512 512" xml:space="preserve"><g transform="matrix(0.6999999999999998,0,0,0.6999999999999998,19.200684356689457,19.207543235644707)"><circle cx="74" cy="14" r="12" fill="#90caf9" opacity="1" data-original="#90caf9"></circle><path fill="#fcd197" d="M84.54 43.21c-.51-6.14 6.52-6.45 9.24-5.57C97.32 38.8 97.67 43 97.67 43s6.15-1.74 9.94 2c2.12 2.08 3.4 9 3.4 9a9.75 9.75 0 0 1 6.27.73c3.32 1.56 4.87 4.79 5.35 11.27s3.83 23.14 3.37 31.9-4 21.89-4 21.89l4 6.28H86.5l-2.38-5.85s-9.36-4.66-11.63-9.6S66 99.3 63 94.21s-4.29-11.32-7.3-16.71-8.13-9.63-9.39-13.14 2.46-7.4 9.06-4.88 10.37 6.6 12.1 10.43a15.08 15.08 0 0 0 4.79 6.23L72 76s1.23-15 1-18.72-.67-44.27.26-45.34 5.89-4.45 8.24.19c1.19 2.36 2.3 17.13 3.09 31.08" opacity="1" data-original="#fcd197"></path><g fill="#404040"><path d="M86.5 128a2 2 0 0 1-1.85-1.25l-2.1-5.16c-2.4-1.27-9.67-5.42-11.87-10.21a124.78 124.78 0 0 0-7-12.24c-.84-1.35-1.66-2.66-2.41-3.9a50.68 50.68 0 0 1-4-9A54.85 54.85 0 0 0 54 78.48a45.8 45.8 0 0 0-5-6.79c-2-2.42-3.77-4.51-4.54-6.65a5.93 5.93 0 0 1 1.45-6.3c2.31-2.26 6.12-2.68 10.21-1.12C62.34 60 67 64.08 69.3 69.09a13.13 13.13 0 0 0 4.27 5.53 2 2 0 0 1-2.61 3 17.11 17.11 0 0 1-5.31-6.92c-1.06-2.34-3.89-6.68-11-9.39-3-1.16-5.09-.64-6 .24a1.92 1.92 0 0 0-.49 2.1c.53 1.47 2.14 3.4 3.85 5.44a48.86 48.86 0 0 1 5.41 7.4A57.77 57.77 0 0 1 61 84.92a47 47 0 0 0 3.62 8.25c.79 1.23 1.6 2.53 2.38 3.83a125.45 125.45 0 0 1 7.26 12.68c1.62 3.53 8.27 7.44 10.7 8.65a2 2 0 0 1 1 1l2.38 5.85A2 2 0 0 1 86.5 128zM126 128a2 2 0 0 1-1.69-.92l-4-6.28a2 2 0 0 1-.25-1.6c0-.13 3.5-13 3.94-21.47.29-5.56-1-14.67-2.12-22-.58-4-1.08-7.36-1.25-9.65-.48-6.56-2-8.58-4.21-9.6a7.79 7.79 0 0 0-4.88-.62A2 2 0 0 1 109 54.3c-.49-2.6-1.69-6.77-2.84-7.9-2.89-2.85-7.95-1.5-8-1.49a2 2 0 0 1-2.53-1.76c0-.1-.31-2.89-2.51-3.61-1.37-.45-4.18-.44-5.66.73a2.85 2.85 0 0 0-1 2.77 2 2 0 0 1-4 .33A6.8 6.8 0 0 1 85 37.14c2.9-2.29 7.29-2.07 9.37-1.4a7.56 7.56 0 0 1 4.77 4.95c2.49-.28 6.73-.2 9.84 2.86 1.81 1.78 3 5.74 3.56 8.17a12.05 12.05 0 0 1 5.54 1.13c4 1.89 6 5.75 6.5 12.93.16 2.15.65 5.49 1.22 9.37 1.1 7.5 2.47 16.83 2.16 22.78-.4 7.67-3 18.35-3.85 21.45l3.54 5.54A2 2 0 0 1 126 128z" fill="#404040" opacity="1" data-original="#404040"></path><path d="M99.69 67.84a2 2 0 0 1-2-1.89c-.24-4.17-2-22.58-2-22.77a2 2 0 1 1 4-.38c.07.76 1.79 18.67 2 22.92a2 2 0 0 1-1.88 2.11zM72 83.79h-.12A2 2 0 0 1 70 81.68c.33-5.76 1.14-21.33.93-24.25-.15-2-.31-13.61-.33-23.8 0-21.72.43-22.26 1.06-23 .9-1 3.92-3.22 7-2.84a5.79 5.79 0 0 1 4.55 3.44c2.42 4.79 4.22 49.24 4.56 58.1a2 2 0 1 1-4 .15c-1-25.23-2.73-53.59-4.13-56.45-.59-1.16-1.22-1.24-1.46-1.27A5.12 5.12 0 0 0 75 13c-.6 4.72-.41 39.46-.06 44.15.28 3.78-.87 23.92-.92 24.78A2 2 0 0 1 72 83.79zM112.13 69.58h-.2a2 2 0 0 1-1.79-2.19 41.85 41.85 0 0 0-1.06-12.93 2 2 0 1 1 3.87-1 45.48 45.48 0 0 1 1.18 14.35 2 2 0 0 1-2 1.77zM62 16H2a2 2 0 0 1 0-4h60a2 2 0 0 1 0 4zM126 16H90a2 2 0 0 1 0-4h36a2 2 0 0 1 0 4z" fill="#404040" opacity="1" data-original="#404040"></path><path d="M65.39 23.82a2 2 0 0 1-1.39-.58A13.59 13.59 0 0 1 78.76 1.06a2 2 0 1 1-1.52 3.7 9.59 9.59 0 0 0-10.43 15.65 2 2 0 0 1-1.41 3.41zM65 116h-9a2 2 0 0 1 0-4h9a2 2 0 0 1 0 4z" fill="#404040" opacity="1" data-original="#404040"></path></g><circle cx="44" cy="114" r="12" fill="#90caf9" opacity="1" data-original="#90caf9"></circle><path fill="#404040" d="M44 128a14 14 0 1 1 14-14 14 14 0 0 1-14 14zm0-24a10 10 0 1 0 10 10 10 10 0 0 0-10-10zM38 66H26a2 2 0 0 1 0-4h12a2 2 0 0 1 0 4z" opacity="1" data-original="#404040"></path><circle cx="14" cy="64" r="12" fill="#90caf9" opacity="1" data-original="#90caf9"></circle><path fill="#404040" d="M14 78a14 14 0 1 1 14-14 14 14 0 0 1-14 14zm0-24a10 10 0 1 0 10 10 10 10 0 0 0-10-10zM32 116H2a2 2 0 0 1 0-4h30a2 2 0 0 1 0 4z" opacity="1" data-original="#404040"></path></g></svg>