<svg xmlns="http://www.w3.org/2000/svg" version="1.1" xmlns:xlink="http://www.w3.org/1999/xlink" width="512" height="512" x="0" y="0" viewBox="0 0 512 512" style="enable-background:new 0 0 512 512" xml:space="preserve" class=""><g transform="matrix(0.7000000000000001,0,0,0.7000000000000001,76.79999942779543,76.79998566839927)"><path fill="#ffe181" d="M256.214 0C167.322-.116 94.89 72.219 94.891 161.111c.001 59.093 31.821 110.747 79.258 138.782 8.423 4.978 13.522 14.102 13.522 23.887v39.242a13.098 13.098 0 0 1 5.065-1.014h126.528c1.796 0 3.506.362 5.065 1.014v-39.243c0-9.9 5.289-18.997 13.802-24.051 47.282-28.074 78.977-79.64 78.977-138.618C417.109 72.202 345.094.116 256.214 0z" opacity="1" data-original="#ffe181" class=""></path><path fill="#fec458" d="M230.251 323.78c0-9.784-5.098-18.909-13.522-23.887-47.437-28.036-79.257-79.689-79.258-138.782-.001-81.616 61.062-149.265 139.86-159.705A162.715 162.715 0 0 0 256.215 0C167.323-.116 94.89 72.218 94.891 161.111c.001 59.093 31.821 110.747 79.258 138.782 8.424 4.978 13.522 14.103 13.522 23.887v39.242a13.098 13.098 0 0 1 5.065-1.014h37.515z" opacity="1" data-original="#fec458" class=""></path><path fill="#ffb640" d="M276.179 369.734a7.726 7.726 0 0 1-7.726-7.726v-69.146c0-6.949 2.34-13.804 6.587-19.304l11.056-14.314a16.21 16.21 0 0 0 3.364-9.858v-72.16a7.726 7.726 0 1 1 15.452 0v72.16c0 6.949-2.34 13.804-6.587 19.304l-11.056 14.314a16.204 16.204 0 0 0-3.364 9.858v69.146a7.726 7.726 0 0 1-7.726 7.726zM235.821 369.734a7.726 7.726 0 0 1-7.726-7.726v-69.146c0-3.548-1.195-7.049-3.364-9.858l-11.057-14.314a31.743 31.743 0 0 1-6.587-19.304v-72.16a7.726 7.726 0 1 1 15.452 0v72.16c0 3.549 1.195 7.049 3.364 9.857l11.057 14.314a31.741 31.741 0 0 1 6.587 19.304v69.146a7.726 7.726 0 0 1-7.726 7.727z" opacity="1" data-original="#ffb640" class=""></path><path fill="#ffeac8" d="M368.389 129.564c-8.361-31.157-29.841-57.209-58.933-71.474a7.727 7.727 0 0 1 6.802-13.874c33.097 16.229 57.538 45.878 67.055 81.343a7.727 7.727 0 0 1-14.924 4.005z" opacity="1" data-original="#ffeac8"></path><path fill="#8479c2" d="M224.799 475.139v5.66c0 17.16 14.04 31.201 31.2 31.201s31.2-14.04 31.2-31.201v-5.66z" opacity="1" data-original="#8479c2"></path><path fill="#6e60b8" d="M252.729 480.799v-5.66h-27.93v5.66c0 17.16 14.04 31.201 31.2 31.201 5.013 0 9.756-1.205 13.965-3.33-10.196-5.147-17.235-15.724-17.235-27.871z" opacity="1" data-original="#6e60b8"></path><path fill="#fec458" d="M304.909 193.521H207.09a7.726 7.726 0 1 1 0-15.452h97.819a7.726 7.726 0 1 1 0 15.452zM57.415 164.711H30.836a7.726 7.726 0 1 1 0-15.452h26.579a7.726 7.726 0 1 1 0 15.452zM65 115.681l-24.85-9.431a7.727 7.727 0 0 1 5.483-14.447l24.85 9.431A7.727 7.727 0 0 1 65 115.681zM35.668 217.684a7.727 7.727 0 0 1 4.482-9.965L65 198.288a7.727 7.727 0 0 1 5.483 14.447l-24.85 9.431a7.726 7.726 0 0 1-9.965-4.482zM481.164 164.711h-26.579a7.726 7.726 0 1 1 0-15.452h26.579a7.726 7.726 0 1 1 0 15.452zM437.034 111.198a7.727 7.727 0 0 1 4.482-9.965l24.85-9.431a7.727 7.727 0 0 1 5.483 14.447L447 115.681a7.728 7.728 0 0 1-9.966-4.483zM466.367 222.167l-24.85-9.431A7.727 7.727 0 0 1 447 198.289l24.85 9.431a7.727 7.727 0 0 1-5.483 14.447z" opacity="1" data-original="#fec458" class=""></path><path fill="#efecef" d="M308.968 437.171H203.032c-7.393 0-13.407 6.014-13.407 13.406v11.412c0 7.392 6.014 13.406 13.407 13.406h105.937c7.392 0 13.406-6.014 13.406-13.406v-11.412c0-7.392-6.014-13.406-13.407-13.406z" opacity="1" data-original="#efecef"></path><path fill="#e2dfe2" d="M308.968 456.284H203.032c-6.054 0-11.178-4.036-12.837-9.556a13.35 13.35 0 0 0-.57 3.85v11.412c0 7.392 6.014 13.406 13.407 13.406h105.937c7.392 0 13.406-6.014 13.406-13.406v-11.412c0-1.339-.203-2.63-.57-3.85-1.659 5.52-6.783 9.556-12.837 9.556z" opacity="1" data-original="#e2dfe2"></path><path fill="#efecef" d="M319.264 399.461H192.735c-7.392 0-13.406 6.014-13.406 13.406v11.412c0 7.393 6.014 13.407 13.406 13.407h126.529c7.393 0 13.407-6.014 13.407-13.407v-11.412c0-7.392-6.014-13.406-13.407-13.406z" opacity="1" data-original="#efecef"></path><path fill="#e2dfe2" d="M319.264 418.574H192.735c-6.054 0-11.178-4.036-12.837-9.557a13.35 13.35 0 0 0-.57 3.85v11.412c0 7.393 6.014 13.407 13.406 13.407h126.529c7.393 0 13.407-6.014 13.407-13.407v-11.412c0-1.339-.203-2.629-.57-3.85-1.658 5.521-6.782 9.557-12.836 9.557z" opacity="1" data-original="#e2dfe2"></path><path fill="#efecef" d="M319.264 361.75H192.735c-7.392 0-13.406 6.014-13.406 13.407v11.412c0 7.392 6.014 13.406 13.406 13.406h126.529c7.393 0 13.407-6.014 13.407-13.406v-11.412c0-7.393-6.014-13.407-13.407-13.407z" opacity="1" data-original="#efecef"></path><path fill="#e2dfe2" d="M319.264 380.863H192.735c-6.054 0-11.178-4.036-12.837-9.556a13.35 13.35 0 0 0-.57 3.85v11.412c0 7.392 6.014 13.406 13.406 13.406h126.529c7.393 0 13.407-6.014 13.407-13.406v-11.412c0-1.339-.203-2.63-.57-3.85-1.658 5.52-6.782 9.556-12.836 9.556z" opacity="1" data-original="#e2dfe2"></path></g></svg>