<svg xmlns="http://www.w3.org/2000/svg" version="1.1" xmlns:xlink="http://www.w3.org/1999/xlink" width="512" height="512" x="0" y="0" viewBox="0 0 512 512" style="enable-background:new 0 0 512 512" xml:space="preserve" class=""><g transform="matrix(0.8200000000000003,0,0,0.8200000000000003,46.07999759674058,46.07946853637688)"><path fill="#9b7b65" d="M71.38 322.3c7.09 6.01 25.49 24.87.79 41.49-11.53-7.13-7.27-19.06-18.8-33.24s4.01-33.84 1.65-42.11 4.42-22.34 4.42-22.34a8.347 8.347 0 0 1 3.55 1.24 97.615 97.615 0 0 0 26.23 11.16c-.64.02-29.8 1.14-21.26 38.14a10.484 10.484 0 0 0 3.42 5.66z" opacity="1" data-original="#9b7b65"></path><path fill="#ca9b76" d="M419.18 311.25c27.77 7.7 50.04-8.02 50.6-8.42-5.77 2.7-14.43.65-22.99-2.95a84.357 84.357 0 0 1-36.26-29.91c-29.57-42.58-64.26-30.96-64.26-30.96-5.4-10.9-20.78-31.46-60.19-32.38a214.344 214.344 0 0 1-29.99-2.48 29.39 29.39 0 0 1-24.32-26.57c-3.44-39.81-27.88-54.49-28.64-54.94l21.08 5.92c-11.56-31.54-52.18-49.65-52.18-49.65l19.38-.63c-29.37-32.48-79.26-22.83-79.26-22.83-.79-11.86-18.68-22.4-18.68-22.4l4.18 18.97-15.49-9.22c4.63 6.85 2.72 28.73 2.72 28.73-11.24 7.98-25.11 52.06-25.11 52.06s-14.64 12.78-3.27 26.05a18.621 18.621 0 0 0 16.45 6.65c4.62-.62 9.47-3.13 10.9-10.51 0 0 24.39-2.44 31.48-25.19 0 0 29.27 10.93 6.21 58.8-15.16 31.47-17.8 50.94-17.83 60.58a9.612 9.612 0 0 1-8.35 9.45c-8.95 1.22-22.67-1.97-40.93-6.2-24.25-5.61-28.68 19.51-28.68 19.51s1.18 20.68-10.35 31.62c-8.33 7.89-2.93 23.19.71 31.08a44.166 44.166 0 0 1 3.59 11.77l2.93 18.93a3.4 3.4 0 0 0 3.67 2.88c6.56-.65 20.13-4.99 11.55-30.95a9.829 9.829 0 0 0-3.84-5.06 9.639 9.639 0 0 1-4.11-9.93c7.42-36.54 19.83-44.95 26.49-46.75a8.071 8.071 0 0 1 3.05-.22 8.347 8.347 0 0 1 3.55 1.24 97.615 97.615 0 0 0 26.23 11.16h.01a89.567 89.567 0 0 0 63.4-6.17s16.89 43.42 87.14 44.58c1.49 12.43 7.1 27.44 22.14 42.11 0 0 36.13 46.56 2.34 58.74-12.31 4.43-16.86 10.67-22.07 16.8 0 0-30.34-3.02-37.46 18.58l8.27 2.3-9.88 12.86s9.42 17 28.04 8.04l7.59-16.77 17.46-3.9s18.39-29.64 38.16-33.32 29.19-16.08 19.08-34-3.75-39.74 4.1-45.03 43.25-20.9 43.02-75.58c0 0 18.16-11.49 21.83 37.45S422.5 370.43 501 346.31c-38.43.62-81.82-35.06-81.82-35.06z" opacity="1" data-original="#ca9b76" class=""></path><g fill="#dbaa89"><path d="m116.953 64.319-2.048-9.3c-1.772.237-2.755.427-2.755.427-.79-11.86-18.68-22.4-18.68-22.4l4.18 18.97L82.16 42.8c4.63 6.85 2.72 28.73 2.72 28.73-11.24 7.98-25.11 52.06-25.11 52.06s-14.64 12.78-3.27 26.05a18.566 18.566 0 0 0 16.912 6.582l.007-.007c.45-2.561-4.515-10.875-3.36-12.8 3.6-6.011 9.784-9.262 12.2-15.842 4.373-11.936 14.3-25.864 20.819-33.4a97.8 97.8 0 0 0 7.9-10.422l3.361-5.135a18.745 18.745 0 0 0 2.614-14.297zM149.374 154.989c-3.007-8.1-13.733-9.562-19.195-2.871l-.077.093c-.8 7.363-3.329 16.317-8.562 27.179-15.16 31.47-17.8 50.94-17.83 60.58a9.612 9.612 0 0 1-8.35 9.45c-8.95 1.22-22.67-1.97-40.93-6.2-24.25-5.61-28.68 19.51-28.68 19.51s1.18 20.68-10.35 31.62c-8.33 7.89-2.93 23.19.71 31.08a44.166 44.166 0 0 1 3.59 11.77l2.93 18.93a3.4 3.4 0 0 0 3.67 2.88c3.814-.378 9.991-2.013 12.813-8.411a45.511 45.511 0 0 0-2-5.169c-2.7-5.858-6.371-15.8-4.673-23.762a9.59 9.59 0 0 1-2.537-8.6c7.42-36.54 19.83-44.95 26.49-46.75.044-.012.089-.018.133-.029 4.3-3.206 10.369-5.046 18.907-3.071 18.26 4.23 31.98 7.42 40.93 6.2a9.612 9.612 0 0 0 8.35-9.45c.03-9.64 2.67-29.11 17.83-60.58 10.315-21.418 10.157-35.441 6.831-44.399z" fill="#dbaa89" opacity="1" data-original="#dbaa89" class=""></path></g></g></svg>